<svg width="512" height="512" viewBox="0 0 512 512" xmlns="http://www.w3.org/2000/svg">
  <rect width="512" height="512" rx="110" fill="#0F172A"/>

  <rect x="70" y="110" width="190" height="300" rx="20" fill="#1E293B"/>
  <rect x="252" y="110" width="190" height="300" rx="20" fill="#1E293B"/>
  <rect x="242" y="110" width="20" height="300" rx="10" fill="#334155"/>

  <rect x="105" y="190" width="120" height="14" rx="7" fill="#64748B"/>
  <rect x="105" y="230" width="95" height="14" rx="7" fill="#64748B"/>

  <rect x="287" y="190" width="120" height="14" rx="7" fill="#64748B"/>
  <rect x="287" y="230" width="95" height="14" rx="7" fill="#64748B"/>

  <!-- Symmetrical five-point star -->
  <polygon
    points="410,92 421,122 453,122 427,141 437,172 410,153 383,172 393,141 367,122 399,122"
    fill="#EF4444"/>
</svg>
