<svg xmlns="http://www.w3.org/2000/svg" viewBox="0 0 512 512">
  <rect width="512" height="512" rx="96" fill="#0b1020"/>
  <rect x="70" y="92" width="372" height="328" rx="28" fill="#12213f"/>
  <rect x="92" y="116" width="156" height="280" rx="18" fill="#f5f7fb"/>
  <rect x="264" y="116" width="156" height="280" rx="18" fill="#f5f7fb"/>
  <rect x="250" y="108" width="12" height="296" rx="6" fill="#ff4d6d"/>
  <rect x="118" y="150" width="100" height="16" rx="8" fill="#2f6fe4"/>
  <rect x="118" y="182" width="82" height="12" rx="6" fill="#aac2ff"/>
  <rect x="118" y="206" width="92" height="12" rx="6" fill="#aac2ff"/>
  <rect x="118" y="230" width="70" height="12" rx="6" fill="#aac2ff"/>
  <rect x="292" y="150" width="100" height="16" rx="8" fill="#2f6fe4"/>
  <rect x="292" y="182" width="82" height="12" rx="6" fill="#aac2ff"/>
  <rect x="292" y="206" width="92" height="12" rx="6" fill="#aac2ff"/>
  <rect x="292" y="230" width="70" height="12" rx="6" fill="#aac2ff"/>
  <rect x="122" y="282" width="116" height="76" rx="14" fill="#ffd24a"/>
  <rect x="274" y="282" width="116" height="76" rx="14" fill="#25c28a"/>
</svg>
