<svg xmlns="http://www.w3.org/2000/svg" viewBox="0 0 512 512">
  <rect width="512" height="512" rx="88" fill="#18110c"/>
  <rect x="72" y="84" width="368" height="344" rx="28" fill="#2a1b13"/>
  <path d="M96 116h146c26 0 48 8 70 26v238c-22-18-44-26-70-26H96c-13 0-24-11-24-24V140c0-13 11-24 24-24z" fill="#efe1bf"/>
  <path d="M416 116H270c-26 0-48 8-70 26v238c22-18 44-26 70-26h146c13 0 24-11 24-24V140c0-13-11-24-24-24z" fill="#efe1bf"/>
  <rect x="248" y="116" width="16" height="252" rx="8" fill="#7a1f1f"/>
  <path d="M120 164h96" stroke="#2a1b13" stroke-width="18" stroke-linecap="square"/>
  <path d="M120 202h84M120 228h92M120 254h68" stroke="#7c6447" stroke-width="12" stroke-linecap="square"/>
  <path d="M296 164h96" stroke="#2a1b13" stroke-width="18" stroke-linecap="square"/>
  <path d="M296 202h84M296 228h92M296 254h68" stroke="#7c6447" stroke-width="12" stroke-linecap="square"/>
  <rect x="122" y="292" width="90" height="44" fill="#c89b3c"/>
  <rect x="300" y="292" width="90" height="44" fill="#496c8a"/>
</svg>
