<svg xmlns="http://www.w3.org/2000/svg" viewBox="0 0 512 512">
  <rect width="512" height="512" rx="88" fill="#141414"/>
  <g transform="translate(64 82)">
    <rect x="0" y="0" width="384" height="348" rx="34" fill="#211b16"/>
    <path d="M26 42c0-18 14-32 32-32h132c30 0 58 10 86 30v266c-28-20-56-30-86-30H58c-18 0-32-14-32-32z" fill="#f2e7cc"/>
    <path d="M358 42c0-18-14-32-32-32H194c-30 0-58 10-86 30v266c28-20 56-30 86-30h132c18 0 32-14 32-32z" fill="#f2e7cc"/>
    <rect x="188" y="14" width="8" height="288" fill="#5f0f14"/>
    <rect x="196" y="14" width="8" height="288" fill="#8d2b2b"/>
    <rect x="56" y="76" width="98" height="20" fill="#1f1f1f"/>
    <rect x="56" y="112" width="112" height="12" fill="#78664d"/>
    <rect x="56" y="136" width="98" height="12" fill="#78664d"/>
    <rect x="56" y="160" width="78" height="12" fill="#78664d"/>
    <rect x="230" y="76" width="98" height="20" fill="#1f1f1f"/>
    <rect x="216" y="112" width="112" height="12" fill="#78664d"/>
    <rect x="230" y="136" width="98" height="12" fill="#78664d"/>
    <rect x="250" y="160" width="78" height="12" fill="#78664d"/>
    <circle cx="108" cy="228" r="28" fill="#b0893b"/>
    <circle cx="276" cy="228" r="28" fill="#3f6078"/>
    <path d="M34 322h316" stroke="#b73a3a" stroke-width="8" opacity=".8"/>
  </g>
</svg>
