<svg width="512" height="512" viewBox="0 0 512 512" xmlns="http://www.w3.org/2000/svg">
  <rect width="512" height="512" rx="110" fill="#121A32"/>

  <rect x="70" y="110" width="190" height="300" rx="20" fill="#314B6C"/>
  <rect x="252" y="110" width="190" height="300" rx="20" fill="#314B6C"/>
  <rect x="242" y="110" width="20" height="300" rx="10" fill="#4E6E98"/>

  <rect x="105" y="164" width="134" height="14" rx="7" fill="#C3D6F2"/>
  <rect x="105" y="198" width="120" height="14" rx="7" fill="#C3D6F2"/>
  <rect x="105" y="232" width="104" height="14" rx="7" fill="#C3D6F2"/>
  <rect x="105" y="266" width="112" height="14" rx="7" fill="#C3D6F2"/>
  <rect x="105" y="300" width="88" height="14" rx="7" fill="#C3D6F2"/>

  <rect x="287" y="164" width="134" height="14" rx="7" fill="#C3D6F2"/>
  <rect x="287" y="198" width="120" height="14" rx="7" fill="#C3D6F2"/>
  <rect x="287" y="232" width="104" height="14" rx="7" fill="#C3D6F2"/>
  <rect x="287" y="266" width="112" height="14" rx="7" fill="#C3D6F2"/>
  <rect x="287" y="300" width="88" height="14" rx="7" fill="#C3D6F2"/>

  <polygon
    points="410,92 421,122 453,122 427,141 437,172 410,153 383,172 393,141 367,122 399,122"
    fill="#FF5B61"/>
</svg>
