<svg xmlns="http://www.w3.org/2000/svg" viewBox="0 0 512 512">
  <defs>
    <linearGradient id="bg" x1="0" y1="0" x2="1" y2="1">
      <stop offset="0%" stop-color="#0d1328"/>
      <stop offset="100%" stop-color="#1a2548"/>
    </linearGradient>
    <linearGradient id="paper" x1="0" y1="0" x2="0" y2="1">
      <stop offset="0%" stop-color="#ffffff"/>
      <stop offset="100%" stop-color="#dde6f5"/>
    </linearGradient>
  </defs>
  <rect width="512" height="512" rx="96" fill="url(#bg)"/>
  <g transform="translate(64 94)">
    <path d="M0 42c0-18 14-32 32-32h148c28 0 52 8 84 30v286c-32-22-56-30-84-30H32c-18 0-32-14-32-32z" fill="url(#paper)"/>
    <path d="M384 42c0-18-14-32-32-32H204c-28 0-52 8-84 30v286c32-22 56-30 84-30h148c18 0 32-14 32-32z" fill="url(#paper)"/>
    <path d="M192 33c21-15 40-23 64-23v301c-24 0-43 8-64 23z" fill="#ff5a7a"/>
    <path d="M192 33c-21-15-40-23-64-23v301c24 0 43 8 64 23z" fill="#ff6f8b"/>
    <rect x="42" y="68" width="108" height="18" rx="9" fill="#275fd8"/>
    <rect x="42" y="102" width="126" height="12" rx="6" fill="#a6bdf9"/>
    <rect x="42" y="126" width="118" height="12" rx="6" fill="#a6bdf9"/>
    <rect x="42" y="150" width="90" height="12" rx="6" fill="#a6bdf9"/>
    <rect x="234" y="68" width="108" height="18" rx="9" fill="#275fd8"/>
    <rect x="216" y="102" width="126" height="12" rx="6" fill="#a6bdf9"/>
    <rect x="224" y="126" width="118" height="12" rx="6" fill="#a6bdf9"/>
    <rect x="252" y="150" width="90" height="12" rx="6" fill="#a6bdf9"/>
    <circle cx="96" cy="228" r="34" fill="#ffd34e"/>
    <circle cx="288" cy="228" r="34" fill="#2ac48f"/>
  </g>
</svg>
